<?xml version="1.0" standalone="no"?>
<!DOCTYPE svg PUBLIC "-//W3C//DTD SVG 20010904//EN"
 "http://www.w3.org/TR/2001/REC-SVG-20010904/DTD/svg10.dtd">
<svg version="1.0" xmlns="http://www.w3.org/2000/svg"
 width="380.000000pt" height="380.000000pt" viewBox="0 0 380.000000 380.000000"
 preserveAspectRatio="xMidYMid meet">
<metadata>
Created by potrace 1.14, written by Peter Selinger 2001-2017
</metadata>
<g transform="translate(0.000000,380.000000) scale(0.100000,-0.100000)"
fill="#000000" stroke="none">
<path d="M305 3587 c-150 -56 -261 -181 -295 -331 -7 -31 -10 -486 -10 -1375
0 -1319 1 -1329 21 -1390 24 -70 72 -145 127 -196 48 -45 163 -101 227 -111
28 -4 723 -7 1545 -7 l1495 1 65 22 c155 52 259 162 299 314 15 57 16 193 15
1397 -1 1325 -1 1334 -22 1391 -48 132 -138 226 -272 284 -44 19 -84 19 -1590
21 l-1545 2 -60 -22z"/>
</g>
</svg>
